<?xml version="1.0"?>
<svg version="1.1" xmlns="http://www.w3.org/2000/svg" width="350px" height="100px" style="border: dashed 2px #aaa"><path fill="#" d="M153.845703125,75.25390625q-0.029296875-0.87890625-0.029296875-1.7578125q0-2.75390625,0.29296875-5.537109375q0.3515625-3.69140625,0.46875-7.265625q0.1171875-4.189453125,0.3515625-8.701171875q0.146484375-2.4609375,0.146484375-4.86328125q0-1.962890625-0.087890625-3.896484375q0.29296875-0.673828125,0.7763671875-0.908203125t1.2158203125-0.234375q0.3515625,0,0.7470703125,0.05859375t0.6884765625,0.29296875q0.41015625,0.05859375,1.0107421875,0.1171875t0.9228515625,0.3515625q0.1171875,0.17578125,0.6005859375,1.201171875t1.142578125,2.490234375t1.376953125,3.1787109375t1.376953125,3.251953125t1.142578125,2.7099609375t0.6005859375,1.46484375q2.75390625-4.98046875,5.390625-10.2392578125t5.771484375-9.9169921875q0.29296875-0.41015625,1.0107421875-0.6005859375t1.1865234375-0.1904296875q1.259765625,0,1.8310546875,0.6005859375t0.7470703125,1.5380859375q0.1171875,0.5859375,0.146484375,1.259765625q0.029296875,0.3515625-0.029296875,0.732421875q-0.1171875,1.083984375-0.1171875,2.05078125q0,6.826171875-0.46875,13.5498046875t-0.849609375,13.5791015625q-0.05859375,1.40625-0.05859375,2.9296875t0.05859375,3.1640625q0.029296875,0.5859375,0.029296875,1.142578125q0,2.578125-0.439453125,4.8046875q-0.41015625,0.673828125-1.34765625,0.849609375t-1.58203125,0.17578125q-1.376953125,0-2.63671875-0.64453125l-0.322265625-0.380859375l-0.1171875-0.46875t-0.05859375-0.46875q0-4.248046875,0.3076171875-8.5546875t0.6884765625-8.5986328125t0.8056640625-8.5693359375t0.7177734375-8.5546875q-1.728515625,2.87109375-3.3544921875,5.8447265625t-3.0615234375,6.0498046875q-0.52734375,1.201171875-1.0107421875,2.578125t-1.1572265625,2.4609375q-0.3515625,0.52734375-1.1865234375,0.64453125t-1.4501953125,0.1171875q-0.5859375,0-1.2158203125-0.205078125t-0.8642578125-0.87890625q-1.083984375-3.310546875-2.314453125-6.474609375t-2.490234375-6.416015625q0,2.16796875,0.087890625,5.6103515625t0.087890625,7.1337890625t-0.1171875,7.060546875t-0.556640625,5.33203125q-0.1171875,0.732421875-0.9521484375,0.908203125t-1.4501953125,0.17578125q-0.46875,0-0.8935546875-0.05859375t-0.8349609375-0.234375z M188.05478515625,69.62890625q0-1.669921875,0.4248046875-3.4423828125t1.34765625-3.193359375t2.3291015625-2.314453125t3.3984375-0.8935546875q1.494140625,0,3.1494140625,0.5126953125t3.0322265625,1.46484375t2.2412109375,2.3291015625t0.8642578125,3.076171875q0,2.05078125-0.7470703125,3.896484375t-2.0947265625,3.2958984375t-3.1494140625,2.28515625t-3.9111328125,0.8349609375q-1.728515625,0-3.017578125-0.6298828125t-2.1533203125-1.6845703125t-1.2890625-2.490234375t-0.4248046875-3.046875z M192.36142578125,69.5703125q0,0.52734375,0.1611328125,1.552734375t0.4833984375,2.0068359375t0.8349609375,1.69921875t1.2451171875,0.6591796875q1.552734375-0.17578125,2.5634765625-1.0107421875t1.640625-2.0361328125t0.87890625-2.607421875t0.2490234375-2.666015625q0-1.611328125-0.6298828125-2.6953125t-2.0654296875-1.7578125q0,0.05859375,0.05859375,0.05859375t0.05859375-0.05859375l-0.732421875-0.17578125q-0.29296875-0.1171875-0.7177734375-0.263671875t-0.8349609375-0.64453125q-1.142578125,0.41015625-1.7724609375,1.0546875t-0.9521484375,1.5673828125t-0.3955078125,2.2119140625t-0.0732421875,3.10546875z M210.2521484375,60.078125q0-0.5859375,0.76171875-0.7470703125t1.171875-0.1611328125q2.578125,0,5.068359375-0.439453125t5.009765625-0.439453125q0.234375,0,0.7763671875,0.029296875t1.025390625,0.1171875t0.8642578125,0.29296875t0.380859375,0.615234375q0,0.732421875-0.3515625,2.109375t-0.9521484375,3.0908203125t-1.318359375,3.6328125t-1.435546875,3.662109375t-1.34765625,3.1494140625t-1.0107421875,2.197265625q0.966796875,0.17578125,2.373046875,0.29296875t2.666015625,0.234375t2.109375,0.3955078125t0.791015625,0.6884765625q-0.1171875,0.673828125-1.201171875,1.0546875q-1.0546875,0.380859375-2.63671875,0.52734375q-0.966796875,0.087890625-2.05078125,0.087890625q-0.64453125,0-1.2890625-0.029296875q-1.7578125-0.087890625-3.2958984375-0.29296875t-2.5634765625-0.5712890625t-1.025390625-0.7763671875q0-0.17578125,0.5126953125-1.435546875t1.259765625-3.0615234375t1.6552734375-3.92578125t1.7431640625-4.0869140625t1.46484375-3.486328125t0.8642578125-2.109375q-1.728515625,0.1171875-3.5009765625,0.29296875t-3.5009765625,0.17578125q-0.234375,0-0.7470703125-0.029296875t-0.99609375-0.146484375t-0.87890625-0.3369140625t-0.3955078125-0.5712890625z M232.88896484375,61.513671875q0-1.201171875,0.703125-2.0654296875t1.7138671875-1.40625t2.2119140625-0.8056640625t2.2265625-0.263671875q0.791015625,0,2.109375,0.234375t2.578125,0.703125t2.1826171875,1.23046875t0.9228515625,1.787109375q0,0.46875-0.3515625,0.8349609375t-0.732421875,0.3662109375q-0.791015625,0-1.435546875-0.5126953125t-1.3330078125-1.083984375t-1.5087890625-1.083984375t-1.845703125-0.5126953125t-1.8603515625,0.6591796875t-0.8349609375,1.7431640625q0,1.787109375,1.259765625,3.5009765625t2.7685546875,3.603515625t2.7685546875,3.9697265625t1.259765625,4.599609375q0,1.083984375-0.4541015625,1.8310546875t-1.201171875,1.2158203125t-1.6845703125,0.7177734375t-1.81640625,0.2490234375q-0.966796875,0-2.255859375-0.4541015625t-2.431640625-1.201171875t-1.9189453125-1.7431640625t-0.7763671875-2.080078125q0-0.52734375,0.7470703125-0.673828125t1.0986328125-0.146484375q0.17578125,0,0.5419921875,0.1171875t0.7177734375,0.263671875t0.6298828125,0.322265625t0.2197265625,0.380859375q0.29296875,0.3515625,0.8935546875,1.0400390625t1.201171875,1.11328125t1.0546875,0.3076171875t0.4541015625-1.318359375q0-2.28515625-1.23046875-4.2041015625t-2.6806640625-3.75t-2.6806640625-3.6328125t-1.23046875-3.8525390625z M253.53359375,70.2734375q0-2.05078125,0.4541015625-4.833984375t1.5380859375-5.2734375t2.8564453125-4.2333984375t4.4677734375-1.7431640625q2.51953125,0,3.779296875,1.4501953125t1.259765625,3.9111328125q0,1.611328125-0.6005859375,3.5302734375t-1.7138671875,3.6328125t-2.63671875,2.8564453125t-3.3984375,1.142578125l-0.76171875-0.05859375q0,0.791015625,0.234375,2.1240234375t0.6884765625,2.6513671875t1.171875,2.314453125t1.7431640625,0.99609375q1.494140625,0,2.87109375-1.201171875t2.607421875-2.666015625t2.28515625-2.666015625t1.93359375-1.201171875q0.46875,0,0.966796875,0.146484375t0.556640625,0.8203125q0,0.41015625-0.2197265625,0.673828125t-0.3955078125,0.5859375q-0.908203125,1.552734375-1.9775390625,2.958984375t-2.4169921875,2.548828125t-2.9443359375,1.8017578125t-3.5302734375,0.6591796875q-2.51953125,0-4.189453125-0.8935546875t-2.6953125-2.40234375t-1.4794921875-3.486328125t-0.4541015625-4.1455078125z M258.777734375,68.046875l0.8203125,0.732421875q0.5859375,0.52734375,1.171875,0.234375t1.0546875-1.0693359375t0.8642578125-1.9189453125t0.703125-2.34375t0.4541015625-2.34375t0.146484375-1.904296875l0-0.99609375t-0.087890625-1.0546875t-0.3076171875-0.8349609375t-0.6884765625-0.4248046875q-0.146484375-0.029296875-0.263671875-0.029296875q-0.99609375,0-1.69921875,1.259765625q-0.76171875,1.40625-1.23046875,3.4130859375t-0.673828125,4.1162109375t-0.263671875,3.1640625z M278.01611328125,61.513671875q0-1.201171875,0.703125-2.0654296875t1.7138671875-1.40625t2.2119140625-0.8056640625t2.2265625-0.263671875q0.791015625,0,2.109375,0.234375t2.578125,0.703125t2.1826171875,1.23046875t0.9228515625,1.787109375q0,0.46875-0.3515625,0.8349609375t-0.732421875,0.3662109375q-0.791015625,0-1.435546875-0.5126953125t-1.3330078125-1.083984375t-1.5087890625-1.083984375t-1.845703125-0.5126953125t-1.8603515625,0.6591796875t-0.8349609375,1.7431640625q0,1.787109375,1.259765625,3.5009765625t2.7685546875,3.603515625t2.7685546875,3.9697265625t1.259765625,4.599609375q0,1.083984375-0.4541015625,1.8310546875t-1.201171875,1.2158203125t-1.6845703125,0.7177734375t-1.81640625,0.2490234375q-0.966796875,0-2.255859375-0.4541015625t-2.431640625-1.201171875t-1.9189453125-1.7431640625t-0.7763671875-2.080078125q0-0.52734375,0.7470703125-0.673828125t1.0986328125-0.146484375q0.17578125,0,0.5419921875,0.1171875t0.7177734375,0.263671875t0.6298828125,0.322265625t0.2197265625,0.380859375q0.29296875,0.3515625,0.8935546875,1.0400390625t1.201171875,1.11328125t1.0546875,0.3076171875t0.4541015625-1.318359375q0-2.28515625-1.23046875-4.2041015625t-2.6806640625-3.75t-2.6806640625-3.6328125t-1.23046875-3.8525390625z"/><path fill="#43474a" d="M35.1533203125,79.462890625q-0.0341796875-1.025390625-0.0341796875-2.05078125q0-3.212890625,0.341796875-6.4599609375q0.41015625-4.306640625,0.546875-8.4765625q0.13671875-4.8876953125,0.41015625-10.1513671875q0.1708984375-2.87109375,0.1708984375-5.673828125q0-2.2900390625-0.1025390625-4.5458984375q0.341796875-0.7861328125,0.90576171875-1.0595703125t1.41845703125-0.2734375q0.41015625,0,0.87158203125,0.068359375t0.80322265625,0.341796875q0.478515625,0.068359375,1.17919921875,0.13671875t1.07666015625,0.41015625q0.13671875,0.205078125,0.70068359375,1.4013671875t1.3330078125,2.9052734375t1.6064453125,3.70849609375t1.6064453125,3.7939453125t1.3330078125,3.16162109375t0.70068359375,1.708984375q3.212890625-5.810546875,6.2890625-11.94580078125t6.7333984375-11.56982421875q0.341796875-0.478515625,1.17919921875-0.70068359375t1.38427734375-0.22216796875q1.4697265625,0,2.13623046875,0.70068359375t0.87158203125,1.79443359375q0.13671875,0.68359375,0.1708984375,1.4697265625q0.0341796875,0.41015625-0.0341796875,0.8544921875q-0.13671875,1.2646484375-0.13671875,2.392578125q0,7.9638671875-0.546875,15.80810546875t-0.9912109375,15.84228515625q-0.068359375,1.640625-0.068359375,3.41796875t0.068359375,3.69140625q0.0341796875,0.68359375,0.0341796875,1.3330078125q0,3.0078125-0.5126953125,5.60546875q-0.478515625,0.7861328125-1.572265625,0.9912109375t-1.845703125,0.205078125q-1.6064453125,0-3.076171875-0.751953125l-0.3759765625-0.4443359375l-0.13671875-0.546875t-0.068359375-0.546875q0-4.9560546875,0.35888671875-9.98046875t0.80322265625-10.03173828125t0.93994140625-9.99755859375t0.83740234375-9.98046875q-2.0166015625,3.349609375-3.91357421875,6.81884765625t-3.57177734375,7.05810546875q-0.615234375,1.4013671875-1.17919921875,3.0078125t-1.35009765625,2.87109375q-0.41015625,0.615234375-1.38427734375,0.751953125t-1.69189453125,0.13671875q-0.68359375,0-1.41845703125-0.2392578125t-1.00830078125-1.025390625q-1.2646484375-3.8623046875-2.7001953125-7.5537109375t-2.9052734375-7.4853515625q0,2.529296875,0.1025390625,6.54541015625t0.1025390625,8.32275390625t-0.13671875,8.2373046875t-0.6494140625,6.220703125q-0.13671875,0.8544921875-1.11083984375,1.0595703125t-1.69189453125,0.205078125q-0.546875,0-1.04248046875-0.068359375t-0.97412109375-0.2734375z M75.747509765625,71.4306640625q0-3.14453125,0.73486328125-6.16943359375t1.24755859375-6.03271484375q0.13671875-0.7861328125,1.07666015625-0.97412109375t1.58935546875-0.18798828125q1.1279296875,0,1.8115234375,0.341796875q0.2734375,0.13671875,0.5126953125,0.3076171875t0.2392578125,0.4443359375q0,2.939453125-0.70068359375,5.7421875t-0.70068359375,5.947265625q0,1.0595703125,0.15380859375,1.99951171875t0.29052734375,1.86279296875l0.205078125,0.9912109375q0,0.2734375,0.0341796875,0.478515625t0.1025390625,0.478515625q0,0.615234375-0.87158203125,0.83740234375t-1.52099609375,0.22216796875q-0.9912109375,0-1.82861328125-0.39306640625t-1.31591796875-1.35009765625l-0.478515625-0.9912109375q-0.41015625-0.7861328125-0.41015625-1.76025390625t-0.1708984375-1.79443359375z M77.935009765625,50.8544921875l0-0.6494140625q0-1.6064453125,0.80322265625-2.87109375t2.40966796875-1.2646484375q0.205078125,0,0.39306640625,0.0341796875t0.39306640625,0.0341796875q0.41015625,0.068359375,1.07666015625,0.32470703125t0.66650390625,0.80322265625l0,0.068359375q-0.13671875,0.2734375-0.1708984375,0.56396484375t-0.1708984375,0.49560546875l0.068359375-0.068359375q-0.41015625,1.0595703125-0.66650390625,1.708984375t-0.56396484375,1.04248046875t-0.76904296875,0.56396484375t-1.31591796875,0.1708984375q-0.13671875,0-0.478515625-0.0341796875t-0.73486328125-0.13671875t-0.66650390625-0.2734375t-0.2734375-0.5126953125z M90.67275390625,62.6806640625q0-1.4013671875,0.49560546875-2.3583984375t2.10205078125-0.95703125q0.615234375,0,1.5380859375,0.18798828125t1.0595703125,0.93994140625q0.341796875,2.0166015625,0.3759765625,4.375t0.2392578125,4.443359375q0.7861328125-1.5380859375,2.0166015625-3.3154296875t2.802734375-3.28125t3.41796875-2.4951171875t3.759765625-0.9912109375q0.13671875,0,0.5126953125,0.1025390625t0.70068359375,0.29052734375t0.39306640625,0.42724609375t-0.3759765625,0.4443359375q-0.13671875,0.41015625-0.5810546875,0.49560546875t-0.7861328125,0.08544921875q-0.205078125,0-0.6494140625-0.1708984375q-2.529296875,1.3330078125-4.306640625,3.623046875t-2.9052734375,5.07568359375t-1.640625,5.87890625t-0.5126953125,6.03271484375q0,1.4697265625-0.66650390625,1.77734375t-2.13623046875,0.3076171875q-0.7861328125,0-1.65771484375-0.1708984375t-1.21337890625-1.09375q-0.615234375-1.9482421875-1.00830078125-4.4775390625t-0.59814453125-5.21240234375t-0.29052734375-5.28076171875t-0.08544921875-4.6826171875z M114.96323242188,64.62890625q0-0.9912109375,0.56396484375-1.298828125t1.41845703125-0.3076171875q1.4013671875,0,2.13623046875,0.52978515625t0.73486328125,1.86279296875q0,1.6064453125,0.2392578125,4.01611328125t0.70068359375,4.6826171875t1.09375,3.91357421875t1.31591796875,1.640625q1.2646484375,0,2.23876953125-1.9482421875t1.708984375-4.78515625t1.2646484375-6.10107421875t0.73486328125-5.82763671875q0.13671875-1.4013671875,0.66650390625-2.03369140625t1.93115234375-0.63232421875q1.6064453125,0,2.34130859375,1.3330078125t0.93994140625,3.28125q0.1708984375,1.6748046875,0.1708984375,3.486328125l0,0.5810546875l0,1.3671875q0,1.298828125,0.0341796875,2.32421875l0.9912109375,20.9521484375l0.13671875,3.486328125q0.068359375,0.478515625,0.1025390625,0.90576171875t0.0341796875,0.90576171875q0,1.9482421875-0.83740234375,2.51220703125t-2.71728515625,0.56396484375q-0.41015625,0-1.04248046875-0.068359375t-1.23046875-0.2734375t-1.025390625-0.56396484375t-0.42724609375-0.90576171875l0.13671875-0.341796875q0.1708984375-2.05078125,0.1708984375-4.306640625l0-0.7177734375q-0.0341796875-2.666015625-0.1708984375-5.400390625t-0.3076171875-5.46875t-0.1708984375-5.263671875q-0.478515625,1.0595703125-1.11083984375,2.1875t-1.4697265625,2.03369140625t-1.89697265625,1.50390625t-2.392578125,0.59814453125q-1.9482421875,0-3.212890625-1.025390625t-1.96533203125-2.666015625t-1.00830078125-3.67431640625t-0.41015625-4.0673828125t-0.13671875-3.87939453125t-0.2734375-3.1103515625z"/></svg>
